<svg xmlns="http://www.w3.org/2000/svg" viewBox="0 0 233.32 156.78"><defs><style>.cls-1{isolation:isolate;}.cls-2{opacity:0.7;}.cls-3,.cls-4,.cls-5,.cls-6,.cls-7{fill:none;}.cls-3{stroke:black;}.cls-3,.cls-7{stroke-miterlimit:10;stroke-width:1.5px;}.cls-4{opacity:0.15;}.cls-4,.cls-5,.cls-6,.cls-7{mix-blend-mode:screen;}.cls-5{opacity:0.5;}.cls-7{stroke:#fff;opacity:0.03;}</style></defs><g class="cls-1"><g id="Layer_2" data-name="Layer 2"><g id="Layer_1-2" data-name="Layer 1"><g class="cls-2"><path class="cls-3" d="M190,147.86a18,18,0,0,0,10.11-1.68c-3.88-.93-7.91-1.93-11-4.52a16.3,16.3,0,0,0-2.91-2.29c-2.62-1.28-5.76,0-8.6-.6a5.11,5.11,0,0,0,3.25.09c1-.43,1.68-1.88,1-2.75a4.34,4.34,0,0,0,.63,4.2l1.2-2.94a3.68,3.68,0,0,1,.39,3.84,10.39,10.39,0,0,1-2.45,3.18l0-4.22a1.1,1.1,0,0,1,.14-.65c.26-.39.89-.26,1.2.1a5.75,5.75,0,0,1,.62,1.27c1,2.13,3.91,2.11,6.22,2a39.74,39.74,0,0,1,11.4,1,1.87,1.87,0,0,1,1.13.55c.28.34.23,1-.17,1.11l-12.77-12.66a5.15,5.15,0,0,0-2.92-1.81,5.18,5.18,0,0,1,.05,9.41,7.43,7.43,0,0,0,1-5,1.28,1.28,0,0,1-1.7-.65,2.92,2.92,0,0,1,0-2,7,7,0,0,1,5.08-4.87c-.84,2.79,2,6,4.75,5.37a2.11,2.11,0,0,0,.34,2.67c.65.73,1.53,1.2,2.16,1.95.9,1.06,1.16,2.53,1.85,3.74s2.25,2.18,3.38,1.39c.57-1.23-.44-2.58-1.38-3.54q-5.82-5.91-11.68-11.78a7,7,0,0,0,5.14-1.31,21.24,21.24,0,0,1-2.71,3.2l1.83-1.71.15,2.25c2.28-.53,4.55,2.27,3.64,4.49a9.53,9.53,0,0,1,4.11-.15,3.4,3.4,0,0,1,2.65,2.9l1.19-.88a17.47,17.47,0,0,0,.84,8.21A93.15,93.15,0,0,0,203,114.56a44,44,0,0,0,3.55,10.94,4.75,4.75,0,0,0-4,.68,1.88,1.88,0,0,1,1.43,1.17l-1.52,1.78,1.44.67"/><path class="cls-3" d="M147.49,58.46V96.73"/><path class="cls-3" d="M23.8,14.93l-.92-4.12a4.12,4.12,0,0,0,2.05,5.57,5.24,5.24,0,0,1,1.92.77c1.75,1.57-1.09,4.07-3.35,4.61,1.31-.36,2.28,1.61,1.66,2.86s-2,1.81-3.3,2.27c3.15,2,3.3,6.88,1.65,10.3s-4.59,6-6.8,9-3.69,7.28-2,10.66l4.41,1.36A16.79,16.79,0,0,0,20.44,74a10.83,10.83,0,0,1,3.32-12.34l1,4.48c2-.13,3.54-1.92,5.36-2.84s4.85-.09,4.55,2a2.93,2.93,0,0,1-1.64,2c-2.07,1.16-4.55,1.21-6.76,2.07s-4.28,3.22-3.46,5.5a3.47,3.47,0,0,0,3.59-3.38L26,73.83c1.74,1.46,4-1,4.86-3.15s2.59-4.84,4.63-3.88a8.45,8.45,0,0,0-3.36,6.89A9.87,9.87,0,0,1,38.61,73,28.43,28.43,0,0,1,23.78,80.9a10.75,10.75,0,0,0-4.39,1.37c-1.27.89-2,2.81-1.14,4.11L35.74,81.6a26.22,26.22,0,0,1-17.6,6.56v6a6.86,6.86,0,0,1,5.31,1.22A19.47,19.47,0,0,1,17,95.9a24.2,24.2,0,0,0,1.4,7.78,3.82,3.82,0,0,0,1.26,2c2.81,1.92,5.48-4.47,8.77-3.68a3.78,3.78,0,0,1-2.34,4.16,17.93,17.93,0,0,1,7.2-2.35c.74,3-3.35,4.44-6.31,4.51l5.26,2.94A18.91,18.91,0,0,1,21,108.56l3.92,6.17A10,10,0,0,1,15,110c3.25,11.66,2.86,26.63,2,38.73-.88,0-2.23-3.26-3.1-3.26l-1.38-2a21.32,21.32,0,0,0,1.9-17.67c-1.42-4.14-4.17-8.27-3.08-12.5.67-2.6,2.7-4.61,3.62-7.13.83-2.28.69-4.8.55-7.23-.67-11.07-1.46-22.25-.7-33.31a50.91,50.91,0,0,0-2.46-19.46,2.93,2.93,0,0,0-1.36-2c-2-.82-5.1,2.77-5.77.64A13,13,0,0,0,8.6,35.33a7.76,7.76,0,0,1-7.34,3.31L.79,26.54c-.23-5.74.41-12.94,5.61-15A29.75,29.75,0,0,1,14.8,3.8a15.69,15.69,0,0,0,.94,7.5,35.71,35.71,0,0,0,6-11.06l-1.2,8.62a10.18,10.18,0,0,0,4.89-5.24,2.56,2.56,0,0,0,3.47-.52l.19,4.22,5.6-.57a14,14,0,0,1,.56-5.38,3.87,3.87,0,0,1,4,3.68,3.69,3.69,0,0,1,4.22.87c.22-2,3.36-2.56,4.24-.81a3.48,3.48,0,0,1,2.92-1.34A4.4,4.4,0,0,0,53,9.46C51.8,14.74,49.58,21,44.39,21.92a12,12,0,0,0-2.81.52c-2.38,1-2.7,4.32-2.59,7a167.11,167.11,0,0,0,3.56,27.94,3.35,3.35,0,0,0,1,2.07c1.28,1,2.93-.35,4.16-1.37s3.57-1.46,3.94.11a19.88,19.88,0,0,1-9.35,5.49c-1.32,2.54,2,5.93,4.44,4.57l-1.54,5.22c1.38,1.29,3.48,0,5.18-.79s4.63.34,3.76,2a16.8,16.8,0,0,1-10.31-1.56l0,3.68a37.5,37.5,0,0,1,13.9,4.4,19.67,19.67,0,0,0-14.37.72,8.29,8.29,0,0,0,.06,7.1c1.86-1.57,5.23.14,5.16,2.62-.92-.83.84-2.56,1.6-1.56l1.58,8.08a6.1,6.1,0,0,0-.24-8.05,8,8,0,0,1,4.43,6,2.48,2.48,0,0,1,1-3.43,37.23,37.23,0,0,1-5.36,11.18A5.55,5.55,0,0,0,58.31,107c-1.11,3-2.38,6.24-4.68,8.33a52.85,52.85,0,0,1,14.84,1c3.46.67,7.21,1.86,9.06,4.94s1.25,6.85.83,10.36a5.54,5.54,0,0,0,.07,2.4,7.9,7.9,0,0,0,1.72,2.44C82.44,139.2,83,143,83.5,146.66c.29,2.15.31,4.86-1.55,5.86S78,152,77.06,150.25s-1.22-3.91-2.16-5.71c.89,2.48,1.16,5.38-.1,7.69s-4.4,3.59-6.54,2.12c.35-4.45.48-9.57-2.67-12.65A7.28,7.28,0,0,0,58,140.14c.48,2.33,1,4.8.15,7s-3.39,4-5.45,2.88a31.06,31.06,0,0,1-2.09-9.33c.82,2.4,2.15,4.78,1.88,7.31s-3.37,4.79-5.21,3.08l-2.91-15.17,2.38,2.61c1.6.39.34-4.34,1.63-3.28-3.65-2.14-5.48-6.47-6.66-10.63-.89-3.11-1.55-6.46-.66-9.58s3.77-5.85,6.89-5.44a10.25,10.25,0,0,0-3.41-9.2,9.32,9.32,0,0,1-2-1.84,6.69,6.69,0,0,1-.79-3.23L41.37,90"/><path class="cls-3" d="M82.68,152.51a130.12,130.12,0,0,0,61.72-.39c.94-3.6,1.88-7.29,1.52-11s-2.3-7.48-5.63-8.9l-2-4.55c-1.36-3.15-3.17-6.69-6.45-7.36a9.79,9.79,0,0,1-2.87-.61c-.87-.47-1.36-1.87-.58-2.48,4.36-1.64,6.83-7.29,5.14-11.74l2.82,6.13a4.32,4.32,0,0,0,1-4.23A26.91,26.91,0,0,1,143.93,122c9.66-1.48,20.21-2.81,28.6,2.35a4.87,4.87,0,0,1,2.45,2.76c.44,1.83-1,3.5-1.85,5.15a10.21,10.21,0,0,0,1.07,10.95L172,149.91A60.78,60.78,0,0,0,161.66,130c.4,3.53,2,6.81,2.67,10.28s.28,7.62-2.45,9.78a9.09,9.09,0,0,0-.43-9.32,8.46,8.46,0,0,0-8.39-3.5l1.1,14.17-5.74-7-1.55,6.39"/><path class="cls-3" d="M218,18.84a16.08,16.08,0,0,0,6,.64,16.08,16.08,0,0,0-2.33,6.59l5.16.22a6.84,6.84,0,0,0-3.53,6.45,25.88,25.88,0,0,1,7.85-6.08,20.66,20.66,0,0,0-9.38,20.18,8.9,8.9,0,0,0,7.3-6.78l-1.82,4.33,6,0c-3.76-.68-7,2.84-8.71,6.34a32,32,0,0,0-3.28,15.35l9.64-2.52A38.85,38.85,0,0,0,222.46,88a9.79,9.79,0,0,1,7.6-10.15c-3.58,5.71-7.3,11.93-6.93,18.71.3,5.58,3.32,11.42.93,16.44l6.38.43a8.65,8.65,0,0,0-4.54,6.75,5.86,5.86,0,0,1,5.11,1.14c-3,.09-6.63.62-7.75,3.48a7.92,7.92,0,0,0,.16,4.76A67.8,67.8,0,0,0,230,145.9a29.32,29.32,0,0,0-7.66-8.26l.25,16.82a9.78,9.78,0,0,1-5.4-6.55c1.87.08,1.34,3.86-.46,3.4.89-20.73,1-41.48,1.1-62.22l0-7.8c.06-11.89.09-24-3.21-35.39a26.83,26.83,0,0,0,4.85-6.56A3.6,3.6,0,0,1,218.4,43l4.26-1q-.74-10.35-1.45-20.71c-.09-1.29-.28-2.77-1.34-3.48s-2.88.58-2.15,1.63c.8-.08,0-1.55-.72-1.11s-.61,1.47-.45,2.28c-.86-.34-1.9-.67-2.65-.11s-.17,2.23.65,1.78a1.57,1.57,0,0,0-2.13-1.67l.12,5.25L218.33,22c1.23,1.5.31,3.88-1.06,5.26s-3.17,2.38-4.07,4.13,0,4.58,1.86,4.47a7.47,7.47,0,0,1-4.82,3.81,11.49,11.49,0,0,1,8.95-4.06A19.74,19.74,0,0,0,215,42.09c-.82,2.48-.48,5.55,1.47,7.22l-3.78,1.79,2.18,2-4.57,6A25.79,25.79,0,0,0,219,38.77a182.62,182.62,0,0,1-5,26.36c-.7,2.59-2,5.63-4.55,6l3.69,3.16a3,3,0,0,0-4.07,1.4c-.57,1.56,1,3.55,2.54,3l-6.68.21a11.31,11.31,0,0,0,4.46,1.06c-.51-.66-1.67-.11-1.86.72A3.56,3.56,0,0,0,208.2,83a62,62,0,0,1-13.94-2,39.48,39.48,0,0,0,16,5.63,7.46,7.46,0,0,0-1.3,7.39l4.94-7.67c-2.32,11.14-6.25,24.52-5.35,36,.76,9.8,2.33,19.44,2.82,29.41,1.89.34,4,.5,5.7-.43"/><path class="cls-3" d="M71.39,59.69a10,10,0,0,1,4.38-3c1.51-.36,3.08,0,4.62-.07,4-.22,7.24-3.51,10-6.58l-2.13,5.08"/><path class="cls-3" d="M72.86,74.61c2,.5,3.63-1.66,5-3.34a18,18,0,0,1,15.7-6.67"/><path class="cls-3" d="M71.83,60.43c-1.32,7.77,2.71,15.4,3.36,23.27.55,6.77-1.42,13.45-3.37,19.94a11.27,11.27,0,0,1-1.48,3.47A2.64,2.64,0,0,1,72.13,104"/><path class="cls-3" d="M91.45,71.89a98.88,98.88,0,0,1-2.07,29.57A61.3,61.3,0,0,1,92.5,80.2a3.24,3.24,0,0,1,1.19-1.86,2.77,2.77,0,0,1,1.39-.27,4.48,4.48,0,0,1,3.51,1.05c1.31,1.42.68,3.75,1.17,5.65.14.58,1.07,1.08,1.14.48"/><path class="cls-3" d="M112.63,82.56c-1.23-.51-2.47.65-3.33,1.69-1.33,1.62-2.72,3.39-2.87,5.5a6.62,6.62,0,0,0,4,6.06c1.81.86,4.53.66,5.11-1.31.42-1.44-.58-2.85-1.29-4.16s-1-3.31.32-4a2.38,2.38,0,0,1,2.8.93c.68.85,1.06,1.91,1.72,2.77,1.74,2.29,4.93,2.6,7.75,2.73"/><path class="cls-3" d="M128,82.93A24.14,24.14,0,0,0,129.2,93,21.91,21.91,0,0,1,133.45,77a3.36,3.36,0,0,1,2.46-1.63c1.81,0,2.43,2.46,2.53,4.32l.83,16.91a5.19,5.19,0,0,0,.57,2.57,1.65,1.65,0,0,0,2.23.66"/><path class="cls-3" d="M155.06,73.42a17.19,17.19,0,0,1-6.2,8.27c3.95,1.31,6.23,6.19,10.32,6.9,2.72.48,5.47-1.08,8.2-.65,3.89.63,6.1,4.87,9.4,7.07,3.59,2.38,8.18,2.18,12.29,3.33a20.31,20.31,0,0,1,13.77,14"/><ellipse class="cls-4" cx="53.89" cy="107.58" rx="2.22" ry="2.95" transform="matrix(0.15, -0.99, 0.99, 0.15, -60.72, 144.2)"/><ellipse class="cls-5" cx="53.89" cy="107.58" rx="1.11" ry="1.47" transform="translate(-60.72 144.2) rotate(-81.11)"/><ellipse class="cls-6" cx="53.89" cy="107.58" rx="0.93" ry="1.23" transform="translate(-60.72 144.2) rotate(-81.11)"/><polyline class="cls-7" points="53.89 107.58 48.91 106.08 53.89 107.58 58.86 109.07 53.89 107.58 55.42 103.89 53.89 107.58 52.36 111.27 53.89 107.58 52.59 107.36 53.89 107.58 55.19 107.79 53.89 107.58 54.05 106.6 53.89 107.58 53.72 108.56 53.89 107.58 52.4 108.56 53.89 107.58 55.37 106.59 53.89 107.58 52.46 106.35 53.89 107.58 55.31 108.81 53.89 107.58 51.21 106.83 53.89 107.58 56.56 108.32 53.89 107.58 54.63 105.59 53.89 107.58 53.14 109.56 53.89 107.58 51.98 107.22 53.89 107.58 55.79 107.93 53.89 107.58 54.19 106.14 53.89 107.58 53.58 109.01 53.89 107.58 48.26 110.61 53.89 107.58 59.51 104.54 53.89 107.58 49.41 103 53.89 107.58 58.36 112.16 53.89 107.58 47.88 104.18 53.89 107.58 59.9 110.97 53.89 107.58 57.82 103.26 53.89 107.58 49.96 111.89 53.89 107.58 48.2 104.77 53.89 107.58 59.58 110.38 53.89 107.58 57.07 103.45 53.89 107.58 50.7 111.7 53.89 107.58 51.83 108.45 53.89 107.58 55.94 106.71 53.89 107.58 52.56 105.92 53.89 107.58 55.21 109.23 53.89 107.58 50.73 106.47 53.89 107.58 57.04 108.69 53.89 107.58 55.07 105.25 53.89 107.58 52.71 109.9 53.89 107.58 52.05 107.84 53.89 107.58 55.73 107.32 53.89 107.58 53.38 106.14 53.89 107.58 54.39 109.01 53.89 107.58 50.78 105.84 53.89 107.58 56.99 109.31 53.89 107.58 55.89 105.34 53.89 107.58 51.88 109.81 53.89 107.58 50.04 106.9 53.89 107.58 57.73 108.26 53.89 107.58 54.44 104.68 53.89 107.58 53.33 110.47 53.89 107.58 53.86 107.58 53.89 107.58 53.91 107.57 53.89 107.58 53.87 107.56 53.89 107.58 53.9 107.6 53.89 107.58 53.18 107.96 53.89 107.58 54.59 107.19 53.89 107.58 53.32 107 53.89 107.58 54.45 108.15"/><ellipse class="cls-6" cx="55.84" cy="102.1" rx="0.01" ry="0.02" transform="translate(-53.66 141.5) rotate(-81.11)"/><ellipse class="cls-4" cx="133.5" cy="115.15" rx="3.23" ry="2.54" transform="translate(-5.2 6.32) rotate(-2.66)"/><ellipse class="cls-5" cx="133.5" cy="115.15" rx="1.61" ry="1.27" transform="translate(-5.2 6.32) rotate(-2.66)"/><ellipse class="cls-6" cx="133.5" cy="115.15" rx="1.34" ry="1.06" transform="translate(-5.2 6.32) rotate(-2.66)"/><polyline class="cls-7" points="133.5 115.15 127.84 114.6 133.5 115.15 139.17 115.7 133.5 115.15 134.33 110.67 133.5 115.15 132.68 119.63 133.5 115.15 132.06 115.2 133.5 115.15 134.94 115.09 133.5 115.15 133.47 114.01 133.5 115.15 133.54 116.28 133.5 115.15 132.13 116.59 133.5 115.15 134.88 113.7 133.5 115.15 131.71 114.09 133.5 115.15 135.3 116.2 133.5 115.15 130.47 114.92 133.5 115.15 136.53 115.38 133.5 115.15 133.86 112.75 133.5 115.15 133.15 117.54 133.5 115.15 131.38 115.18 133.5 115.15 135.63 115.12 133.5 115.15 133.51 113.47 133.5 115.15 133.5 116.82 133.5 115.15 128.15 119.82 133.5 115.15 138.86 110.47 133.5 115.15 127.69 111.03 133.5 115.15 139.31 119.27 133.5 115.15 126.31 112.71 133.5 115.15 140.7 117.59 133.5 115.15 136.76 109.42 133.5 115.15 130.25 120.88 133.5 115.15 126.78 113.3 133.5 115.15 140.22 117 133.5 115.15 136 109.81 133.5 115.15 131.01 120.49 133.5 115.15 131.49 116.59 133.5 115.15 135.52 113.71 133.5 115.15 131.72 113.59 133.5 115.15 135.29 116.7 133.5 115.15 129.88 114.62 133.5 115.15 137.13 115.68 133.5 115.15 134.26 112.28 133.5 115.15 132.75 118.02 133.5 115.15 131.59 115.86 133.5 115.15 135.42 114.44 133.5 115.15 132.65 113.65 133.5 115.15 134.36 116.64 133.5 115.15 129.79 113.91 133.5 115.15 137.22 116.39 133.5 115.15 135.16 112.19 133.5 115.15 131.85 118.11 133.5 115.15 129.23 115.26 133.5 115.15 137.78 115.04 133.5 115.15 133.46 111.78 133.5 115.15 133.55 118.52 133.5 115.15 133.48 115.16 133.5 115.15 133.53 115.13 133.5 115.15 133.49 115.13 133.5 115.15 133.52 115.17 133.5 115.15 132.83 115.74 133.5 115.15 134.18 114.56 133.5 115.15 132.77 114.63 133.5 115.15 134.24 115.67"/><circle class="cls-6" cx="134.38" cy="108.57" r="0.02" transform="translate(-4.89 6.35) rotate(-2.66)"/></g><g class="cls-2"><path class="cls-3" d="M165.6,52.83c.72,9.66,1.37,19.73-2.34,28.66,2.19-.75,4-2.53,6.21-3,3.32-.73,6.5,1.49,9.17,3.58"/><path class="cls-3" d="M181,72.14l8.71-8.39c0,4.14-3.78,12.58-3.8,16.71a20.6,20.6,0,0,1,9.38-3.66,22.34,22.34,0,0,0-11,3.34c-1.48.93-3,2.82-1.94,4.2"/></g></g></g></g></svg>