            <svg
                className="logo"
                width="50"
                height="20"
                viewBox="0 0 27 27"
                fill="none"
                xmlns="http://www.w3.org/2000/svg"
            >
                <path
                    d="M22.2671 23.99C22.6246 23.9917 22.979 23.9229 23.3099 23.7875C23.6418 23.6517 23.9435 23.4517 24.1977 23.1989C24.452 22.9461 24.6538 22.6456 24.7915 22.3145C24.7976 22.2997 24.8036 22.2849 24.8095 22.27H25.0097C24.9788 22.5558 24.9172 22.8384 24.8252 23.1126C24.6389 23.6685 24.3326 24.1766 23.928 24.601C23.5235 25.0254 23.0306 25.3556 22.4843 25.5684C21.938 25.7812 21.3515 25.8712 20.7665 25.8322L20.7333 25.83H20.7C19.4753 25.83 18.6168 25.4894 17.9392 24.9621C17.2359 24.4147 16.6675 23.6195 16.1181 22.6114L15.7261 21.8923L14.9438 22.1349C14.0437 22.414 13.1077 22.5606 12.1653 22.57C6.46111 22.5676 1 18.1417 1 11.78C1 5.42394 6.44594 1 12.31 1C18.1701 1 23.5619 5.33717 23.4801 11.8775L23.48 11.8847L23.48 11.8919C23.483 13.5212 23.0879 15.1266 22.329 16.5684C21.5701 18.0102 20.4703 19.2448 19.1255 20.1646L18.3098 20.7225L18.858 21.5447C19.5702 22.6131 20.514 23.9885 22.2671 23.99ZM22.2671 23.99C22.2661 23.99 22.2652 23.99 22.2642 23.99L22.27 22.99M22.2671 23.99C22.2681 23.99 22.269 23.99 22.27 23.99V22.99M22.27 22.99C22.4967 22.9913 22.7215 22.9478 22.9313 22.862C23.1411 22.7761 23.3319 22.6496 23.4927 22.4898C23.6535 22.3299 23.7811 22.1399 23.8681 21.9305C23.9552 21.7212 24 21.4968 24 21.2701L22.27 22.99ZM17.86 18.82H19.59L18.9104 17.6401C19.3813 15.754 19.5967 13.8125 19.55 11.8678C19.5487 8.72809 19.0423 6.17035 17.8416 4.37218C16.5895 2.49694 14.6731 1.58 12.23 1.58C9.78362 1.58 7.8862 2.50252 6.65762 4.38463C5.48164 6.18616 5 8.74627 5 11.88C5 15.0087 5.46755 17.5696 6.64457 19.3677C7.87463 21.2468 9.78312 22.1527 12.2596 22.1401C12.9807 22.1587 13.7012 22.0863 14.4042 21.9245L15.6743 21.6324L15.0633 20.4812C14.4914 19.4039 13.8579 18.381 13.0808 17.6229C12.2852 16.8468 11.3052 16.3177 10.0866 16.3101C10.003 16.3062 9.91942 16.3053 9.83594 16.3073L9.79935 16.2158C10.5566 15.824 11.4056 15.6303 12.2662 15.6594L12.2904 15.6602L12.3146 15.6599C13.2607 15.6461 14.1933 15.8853 15.0159 16.3528C15.7109 16.7478 16.306 17.2937 16.7588 17.948L16.5214 18.82H17.83H17.86Z"
                    fill="black"
                    stroke="white"
                    strokeWidth="1"
                />
            </svg>